<svg id="Layer_1" data-name="Layer 1" xmlns="http://www.w3.org/2000/svg" xmlns:xlink="http://www.w3.org/1999/xlink" viewBox="0 0 70 70"><defs><style>.cls-1,.cls-4{fill:#fff;}.cls-2{mask:url(#mask);}.cls-3{fill:url(#linear-gradient);}.cls-4,.cls-6{fill-opacity:0.38;}.cls-5{fill:#393939;opacity:0.32;isolation:isolate;}.cls-7{opacity:0.32;}</style><mask id="mask" x="0" y="0" width="70" height="70" maskUnits="userSpaceOnUse"><g id="b"><path id="a" class="cls-1" d="M4,0H65c4,0,5,1,5,5V65c0,4-1,5-5,5H4c-3,0-4-1-4-5V5C0,1,1,0,4,0Z"/></g></mask><linearGradient id="linear-gradient" x1="-436.65" y1="312.51" x2="-437.65" y2="311.52" gradientTransform="matrix(70, 0, 0, -70, 30636, 21876)" gradientUnits="userSpaceOnUse"><stop offset="0" stop-color="#bf2026"/><stop offset="1" stop-color="#6a000b"/></linearGradient></defs><title>Artboard 1</title><g class="cls-2"><path class="cls-3" d="M0,0H70V70H0Z"/><path class="cls-4" d="M4,1H65q4,0,5,2V0H0V3Q1,1,4,1Z"/><path class="cls-5" d="M33.86,69H4a3.66,3.66,0,0,1-4-4V51.18L15.8,35l4.28-4H49.92V52.73Z"/><path class="cls-6" d="M4,69H65q4,0,5-3v4H0V66A3.92,3.92,0,0,0,4,69Z"/><g class="cls-7"><polygon points="35 19.27 54.2 37.01 15.8 37.01 35 19.27"/><polygon points="20.08 34.06 20.08 54.73 31.83 54.73 31.83 46.23 38.17 46.23 38.17 54.73 49.92 54.73 49.92 34.06 20.08 34.06"/></g><path class="cls-1" d="M35.13,17.39l18.7,17.28a.2.2,0,0,1-.13.34H16.3a.2.2,0,0,1-.13-.34l18.7-17.28A.2.2,0,0,1,35.13,17.39Z"/><path class="cls-1" d="M20.08,32.26V52.53a.2.2,0,0,0,.2.2H31.64a.2.2,0,0,0,.2-.2v-8.1a.2.2,0,0,1,.2-.2H38a.2.2,0,0,1,.2.2v8.1a.2.2,0,0,0,.2.2H49.72a.2.2,0,0,0,.2-.2V32.26a.2.2,0,0,0-.2-.2H20.28A.2.2,0,0,0,20.08,32.26Z"/></g></svg>