<svg id="Layer_1" data-name="Layer 1" xmlns="http://www.w3.org/2000/svg" xmlns:xlink="http://www.w3.org/1999/xlink" viewBox="0 0 70 70"><defs><style>.cls-1,.cls-4,.cls-8{fill:#fff;}.cls-1,.cls-3,.cls-4,.cls-5{fill-rule:evenodd;}.cls-2{mask:url(#mask);}.cls-3{fill:url(#linear-gradient);}.cls-4,.cls-5{fill-opacity:0.38;}.cls-6{fill:#393939;opacity:0.33;}.cls-7{opacity:0.3;}</style><mask id="mask" x="0" y="0" width="70" height="70" maskUnits="userSpaceOnUse"><g id="b"><path id="a" class="cls-1" d="M4,0H65c4,0,5,1,5,5V65c0,4-1,5-5,5H4c-3,0-4-1-4-5V5C0,1,1,0,4,0Z"/></g></mask><linearGradient id="linear-gradient" x1="-909.8" y1="568.8" x2="-910.8" y2="567.8" gradientTransform="matrix(70, 0, 0, -70, 63756, 39816)" gradientUnits="userSpaceOnUse"><stop offset="0" stop-color="#69b06e"/><stop offset="0.46" stop-color="#55985a"/><stop offset="1" stop-color="#3d7c42"/></linearGradient></defs><g class="cls-2"><path class="cls-3" d="M0,0H70V70H0Z"/><path class="cls-4" d="M4,1H65c2.67,0,4.33.67,5,2V0H0V3C.67,1.67,2,1,4,1Z"/><path class="cls-5" d="M4,69H65c2.67,0,4.33-1,5-3v4H0V66A3.92,3.92,0,0,0,4,69Z"/><polygon class="cls-6" points="59.73 26.51 22.63 26.51 15.37 30.34 0 45.7 0 70 37.79 70 53.91 53.88 53.91 53.52 59.73 47.7 59.73 26.51"/></g><g class="cls-7"><path d="M59.73,48.92c0,2-2.15,1.77-3.53,1.77a7.07,7.07,0,0,1-14.14,0H31.47a7.07,7.07,0,0,1-14.14,0H15.57c-1.38,0-3.54.27-3.54-1.77a1.78,1.78,0,0,1,1.77-1.77V38.32c0-2-.28-4.14,1.24-5.66l5.47-5.46a4.82,4.82,0,0,1,3-1.25h4.41v-5.3a1.78,1.78,0,0,1,1.77-1.76H58a1.78,1.78,0,0,1,1.77,1.76ZM27.93,36.55V29.49H23.57a1.61,1.61,0,0,0-.61.25l-5.38,5.38a1.64,1.64,0,0,0-.25.61v.82ZM24.4,47.15a3.54,3.54,0,1,0,3.53,3.54A3.56,3.56,0,0,0,24.4,47.15Zm24.73,0a3.54,3.54,0,1,0,3.53,3.54A3.56,3.56,0,0,0,49.13,47.15Z"/></g><path class="cls-8" d="M59.73,46.92c0,2-2.15,1.77-3.53,1.77a7.07,7.07,0,0,1-14.14,0H31.47a7.07,7.07,0,0,1-14.14,0H15.57c-1.38,0-3.54.27-3.54-1.77a1.78,1.78,0,0,1,1.77-1.77V36.32c0-2-.28-4.14,1.24-5.66l5.47-5.46a4.82,4.82,0,0,1,3-1.25h4.41v-5.3a1.78,1.78,0,0,1,1.77-1.76H58a1.78,1.78,0,0,1,1.77,1.76ZM27.93,34.55V27.49H23.57a1.61,1.61,0,0,0-.61.25l-5.38,5.38a1.64,1.64,0,0,0-.25.61v.82ZM24.4,45.15a3.54,3.54,0,1,0,3.53,3.54A3.56,3.56,0,0,0,24.4,45.15Zm24.73,0a3.54,3.54,0,1,0,3.53,3.54A3.56,3.56,0,0,0,49.13,45.15Z"/></svg>